<svg width="24" height="24" viewBox="0 0 24 24" fill="none" xmlns="http://www.w3.org/2000/svg">
<path d="M20.6298 4.3702C18.4612 2.19694 15.5698 1 12.5 1C9.4302 1 6.53878 2.19694 4.3702 4.3702C2.20163 6.54347 1 9.4302 1 12.5C1 15.5698 2.19694 18.4612 4.3702 20.6298C6.54347 22.7984 9.4302 24 12.5 24C15.5698 24 18.4612 22.8031 20.6298 20.6298C22.7984 18.4565 24 15.5698 24 12.5C24 9.4302 22.8031 6.53878 20.6298 4.3702V4.3702ZM22.958 11.9837H18.4988C18.4565 10.2094 18.2078 8.50082 17.7712 6.98469C18.6208 6.54816 19.4141 5.99898 20.1416 5.35122C21.7845 7.10673 22.8312 9.42551 22.958 11.9837ZM13.0163 13.0163H17.4708C17.4333 14.6498 17.208 16.2129 16.8184 17.6116C15.6167 17.1282 14.3353 16.8465 13.0163 16.7855V13.0163V13.0163ZM19.4 4.63306C18.7992 5.16347 18.142 5.61408 17.4473 5.98959C17.269 5.49204 17.0671 5.02265 16.8418 4.58143C16.3959 3.69898 15.889 2.97612 15.3304 2.42224C16.8559 2.84939 18.2406 3.61449 19.4 4.63306ZM13.0163 2.19225C14.0912 2.43163 15.1051 3.42204 15.9218 5.03673C16.1424 5.47327 16.3396 5.93796 16.5133 6.43082C15.4102 6.88612 14.232 7.15367 13.0163 7.21469V2.19225ZM16.8231 7.42122C17.208 8.81061 17.4286 10.3643 17.4661 11.9884H13.0163V8.25204C14.34 8.19102 15.6214 7.90469 16.8231 7.42122V7.42122ZM11.9837 11.9837H7.52918C7.56674 10.3596 7.78735 8.80592 8.17225 7.41653C9.37388 7.90469 10.66 8.18633 11.979 8.24265V11.9837H11.9837ZM11.9884 2.19225V7.21469C10.7727 7.15367 9.5898 6.88612 8.49143 6.43082C8.6651 5.93796 8.86225 5.47327 9.08286 5.03673C9.89959 3.42204 10.9135 2.43163 11.9884 2.19225V2.19225ZM9.67429 2.42224C9.11571 2.97612 8.60878 3.70367 8.16286 4.58143C7.94225 5.02265 7.74041 5.49204 7.55735 5.98959C6.86265 5.61408 6.2102 5.16347 5.60469 4.63306C6.76408 3.61449 8.14878 2.84939 9.67429 2.42224ZM4.86306 5.35122C5.59061 5.99898 6.38388 6.54347 7.23347 6.98469C6.79694 8.50551 6.54347 10.2094 6.50592 11.9837H2.04673C2.17347 9.42551 3.2202 7.10673 4.86306 5.35122V5.35122ZM2.04673 13.0163H6.50592C6.54816 14.8047 6.80163 16.518 7.24286 18.0435C6.39796 18.48 5.60469 19.0198 4.88184 19.6676C3.2249 17.9073 2.17347 15.5839 2.04673 13.0163V13.0163ZM5.62347 20.3857C6.22429 19.86 6.87673 19.4094 7.56673 19.0386C7.7451 19.522 7.94225 19.9867 8.16286 20.4186C8.60878 21.301 9.11571 22.0239 9.67429 22.5824C8.15816 22.1553 6.77816 21.3949 5.62347 20.3857ZM11.9884 22.8078C10.9135 22.5684 9.89959 21.578 9.08286 19.9633C8.86694 19.5361 8.67449 19.0808 8.50082 18.5973C9.59918 18.142 10.7773 17.8745 11.9884 17.8182V22.8078V22.8078ZM8.18633 17.6116C7.79674 16.2129 7.57143 14.6498 7.53388 13.0163H11.9884V16.7855C10.6694 16.8418 9.38796 17.1235 8.18633 17.6116ZM13.021 22.8078V17.8182C14.232 17.8792 15.4102 18.142 16.5086 18.5973C16.3349 19.0808 16.1424 19.5361 15.9265 19.9633C15.1098 21.578 14.0959 22.5684 13.021 22.8078V22.8078ZM15.3351 22.5778C15.8937 22.0239 16.4006 21.2963 16.8465 20.4139C17.0671 19.982 17.2643 19.5173 17.4427 19.0339C18.1327 19.4047 18.7851 19.8553 19.3859 20.381C18.2312 21.3949 16.8512 22.1553 15.3351 22.5778V22.5778ZM20.1322 19.6676C19.4094 19.0245 18.6161 18.48 17.7712 18.0435C18.2124 16.518 18.4659 14.8 18.5082 13.0163H22.9673C22.8359 15.5839 21.7845 17.9073 20.1322 19.6676V19.6676Z" fill="white"/>
</svg>
